# xmcd
#
# Track frame offsets:
# 150
# 126930
# 150110
# 166145
#
# Disc length: 3992 seconds
#
# Revision: 1
# Processed by: cddbd v1.5PL3 Copyright (c) Steve Scherf et al.
# Submitted via: Easy CD Ripper 1.45
#
DISCID=210f9604
DTITLE=Coletâne - Brasil Samba e Carnaval
DYEAR=2004
DGENRE=Blues
TTITLE0=Coletâne - Marchas
TTITLE1=Coletâne - Marchas Rancho
TTITLE2=Coletâne - Frevo
TTITLE3=Coletâne - Sambas
EXTD=
EXTT0=
EXTT1=
EXTT2=
EXTT3=
PLAYORDER=
